# xmcd
#
# Track frame offsets: 
#        150
#        20515
#        43442
#        68185
#        83222
#        109596
#        126148
#        140969
#        159659
#        182980
#        195700
#        208912
#        229106
#
# Disc length: 3359 seconds
#
# Revision: 1
# Processed by: cddbd v1.5.2PL0 Copyright (c) Steve Scherf et al.
# Submitted via: ExactAudioCopy v0.95b2
#
DISCID=c70d1d0d
DTITLE=Smokey Robinson - Timeless Love
DYEAR=2006
DGENRE=R&B
TTITLE0=You Go to My Head
TTITLE1=I'm In the Mood For Love
TTITLE2=Our Love Is Here To Stay
TTITLE3=Fly Me To The Moon (In Other Words)
TTITLE4=Night And Day
TTITLE5=I'm Glad There Is You
TTITLE6=More Than You Know
TTITLE7=Speak Low
TTITLE8=Time After Time
TTITLE9=I Can't Give You Anything But Love
TTITLE10=I Like Your Face
TTITLE11=I've Got You Under My Skin
TTITLE12=Tea For Two
EXTD=
EXTT0=
EXTT1=
EXTT2=
EXTT3=
EXTT4=
EXTT5=
EXTT6=
EXTT7=
EXTT8=
EXTT9=
EXTT10=
EXTT11=
EXTT12=
PLAYORDER=
